<svg id="Layer_1" data-name="Layer 1" xmlns="http://www.w3.org/2000/svg" viewBox="0 0 657.71 81.58"><defs><style>.cls-1{fill:#231f20;}</style></defs><title>mikepblack_com_logo_vector</title><path class="cls-1" d="M138.91,428.11c-.09,1.45-.63,1.81-1.36,1.81s-10.42.18-11.23.09-.82-.18-1.45-.54c-.45-.27-7.34-5.53-8-6s-.91-.63-.91,0c-.18.63-.72,4.71-1,5.62-.09.81-.36.91-1,.91s-6.25.09-6.8.09a2.53,2.53,0,0,1-1.54-.45c-.45-.36-8.24-6.16-8.7-6.52s-.63-.45-.63.09-.36,5.16-.45,6-.63.91-1.36.91-12.77.09-13.77.09a2.82,2.82,0,0,1-2-.72c-.63-.45-10.51-10.42-10.87-10.87a2.38,2.38,0,0,1-.72-1.81c-.09-.72.27-28.54.27-33.43s.45-30.35.54-31.07c0-.54-.09-.54,1.09-.63s17.3,0,18.3,0a2.78,2.78,0,0,1,2.17.72c.72.63,9.6,8.88,10.69,9.87s.82.63,1,0,2.45-8.7,2.72-9.69.27-.72,1.18-.81l19.84-.09a2.18,2.18,0,0,1,2.17.91l11.51,11.51c.36.45.45.45.54,1.45S138.91,426.84,138.91,428.11Zm-15.58-44c0-6.79-.09-29.08-.09-29.9s.09-.63-.82-.63-15.13.09-15.67.09c-.72,0-.82.18-.91.54s-9.15,30.8-9.33,31.62-.36,1.27-.91-.54-9.33-30.35-9.51-30.8-.27-.36-.82-.36-14.13-.27-14.68-.18-.82,0-.82.45c0,.63-.63,29.35-.82,35.06s-.18,9.78-.18,12.77.09,13.41.09,14-.09,1.27.54,1.27,9.69-.54,10.15-.54.72.09.72-.64.09-18.12.09-22.56.18-16.22.09-17.39.36-.91.72.72,9.24,33.25,10,35.06c.54,1.81.91,3.8,1,4.26s-.18.54.45.54,5.8-.18,6.16-.09.45.18.63-.63,3.53-12.5,5.89-20.11,5.25-17.21,5.53-18.57.54-1.72.54.09-.09,38,0,38.77.09.72.54.72h.54s9.78-.09,10.24-.18.54.09.54-.45S123.33,391.06,123.33,384.08Z" transform="translate(-67.15 -350.55)"/><path class="cls-1" d="M181.39,428.75c0,1.72-.45,1.54-1.18,1.54H166.9a2.07,2.07,0,0,1-1.81-.63c-.63-.63-10.78-9.42-11.32-9.69a2,2,0,0,1-.72-1.36c0-.72-.27-18.84-.27-32.07s.09-33.16.09-34.06c0-.45-.09-.72.54-.81s13.77.09,14.59.09,1,.18,1.54.81c.45.45,10.87,9.6,11.51,10.15a1.71,1.71,0,0,1,.63,1.18v30.89C181.66,404,181.39,427.21,181.39,428.75Zm-15-12.77c0-.63-.09-21.83-.18-31s-.54-29.44-.54-30.17-.09-1.18-.45-1.18l-9.69-.09c-.54,0-.63,0-.63.63,0,.82-.09,19.12-.09,29.53s.09,30.8.09,31.62.09.91.54,1a20.82,20.82,0,0,0,5.53.63c2.81,0,4.62.09,4.89,0S166.44,416.7,166.35,416Z" transform="translate(-67.15 -350.55)"/><path class="cls-1" d="M258.84,429.92c0,.54-.18.91-.91.91-.91.09-12.32.18-13,.09a2.37,2.37,0,0,1-1.54-.45c-.45-.36-3.17-2.54-6.8-5.53-3.8-3.17-7.07-5.44-7.43-5.8-.54-.36-.63-.36-.54,0v10.33a1.18,1.18,0,0,1-1.09,1.45c-.54.09-15.85.36-16.31.36s-.54-.18-1-.45c-.27-.36-13.77-12.23-14.13-12.68a2.39,2.39,0,0,1-.45-1.36c0-.36-.36-34.52-.36-38.59,0-5.62.18-17.85.27-21.65.09-.72.36-2.63.36-3,0,0,.27-1,.63-1.18a3.5,3.5,0,0,1,1.54-.36h12.77a.88.88,0,0,1,1,.36,21.57,21.57,0,0,1,2.45,2.9c1.09,1.45,2,2.9,2.36,3.35.18.45.27.45.63,0s5.34-5.34,5.8-5.89.54-.64,1.18-.72,20.29-.09,20.93-.18.91.09,1.45.63S257.67,362.7,258,363a1.16,1.16,0,0,1,.36,1v1.63a1.33,1.33,0,0,1-.54,1.18c-.45.64-6.34,6.52-8.88,9.24-2.36,2.45-9.6,10-10,10.24s-.27.36,0,.72,5.62,11.42,8.06,16.22c2.54,5,11.14,21.65,11.51,22.29a2.73,2.73,0,0,1,.36,1.27A18.27,18.27,0,0,1,258.84,429.92Zm-15.58-14c-.27-.54-5.89-12.41-8.61-17.12C232.3,394,222,373.48,221.79,372.94c-.18-.36-.27-.45.18-.91s7.16-6.61,9.51-9.15c2.45-2.36,8.52-8.52,8.79-8.79s.63-.45-.18-.36H225.87a1.41,1.41,0,0,0-1.18.45,73.11,73.11,0,0,1-5.16,5.35c-2.45,2.17-8.7,8.24-9.24,8.52-.36.18-.54.36-.54-.36V367s0-2,.09-5.53c.18-3.71.18-7.07.18-7.43s0-.45-.45-.45c-.27,0-3.17-.09-5.89-.09-2.9.09-6.07.09-6.25.09s-.27.09-.27.36,0,17.94-.09,23.19.36,39.41.36,39.68.09.45.36.36h11.32c.27,0,.45.09.45-.36s-.09-31.53-.09-31.89,0-.54.18-.72,2.63-3,3-3.26.36-.27.63.18c.27.64,4.17,8.61,6.34,13.14,2.08,4.35,10.6,21.65,10.78,22.1s.18.36.54.36l12-.09C243.35,416.61,243.53,416.52,243.26,415.88Z" transform="translate(-67.15 -350.55)"/><path class="cls-1" d="M321.35,378.38c-.09.64-.09.72-.63.82-.72,0-19.66-.18-20.11-.27-.63,0-.63,0-.36.36s7.7,10.51,7.88,10.78a1,1,0,0,1,.27.82c0,.45.27,10.24.27,10.69s0,.54-.18.72-.36.18-.09.54,12,11.78,12.32,12.23a1.51,1.51,0,0,1,.36,1c.09.36.09,12.59.09,13.41s-.18.91-.82.91l-39,.36a1.16,1.16,0,0,1-.91-.36c-.36-.27-12.32-11.42-12.59-11.69s-.72-.45-.72-1.27.72-63.23.63-64.23c-.09-.63.18-.81,1-.91s38.59,0,39.23,0a1.82,1.82,0,0,1,1.18.36c.45.27,11.14,9.69,11.69,10.24s.36.63.36,1.27S321.35,377.65,321.35,378.38Zm-15.67-23.83c0-.27.09-.54-.45-.54s-34.7-.27-35.15-.27-.72.09-.72.72-1,61.78-.82,62.24c0,.45,0,.45.45.45s35.88-.36,36.6-.36c.54,0,.45-.27.36-.63s0-10.51,0-11-.09-.54-.54-.54-23.28.09-23.83.09-.54-.27-.54-.72,0-11.87,0-12.32.18-.63.63-.72c.63-.09,12-.09,12.5-.09s.45-.09.45-.45.18-10.6.18-11,.09-.36-.18-.36l-13.14-.18c-.36,0-.45-.18-.45-.54s-.09-11.41-.09-12c0-.18.09-.27.54-.36s22.65-.18,23.37-.27.82-.36.82-.82S305.77,354.82,305.68,354.55Z" transform="translate(-67.15 -350.55)"/><path class="cls-1" d="M447,403.65c1,1.9.72,4.71.72,8.06s.54,8.52-3.08,13.59S433.85,429.92,431,430c-3,.18-21.83.18-22.65.09-1-.09-1.18,0-1.81-.63s-11.78-11.23-12.41-11.78-.63-.81-.63-1.81c0-.63-.18-16.94-.18-32.79.09-15,.27-29.71.27-30.17s0-.45.54-.54,12-.18,16.76-.18,7.7.18,11.32,1.81,8.43,5,14,10.6,6.7,8,7.34,8.88a11.9,11.9,0,0,1,1.72,2.63,38.32,38.32,0,0,1,2.17,7.25,26.37,26.37,0,0,1-.54,10.6,5.14,5.14,0,0,1-3.35,3.26c-.45.09-.72,0-.18.54A25.86,25.86,0,0,1,447,403.65Zm-18.84-19.21a22.88,22.88,0,0,0,4.53-11c.54-6.16-1.45-10-5.53-14.31-3.9-4.35-9.69-5.71-15.13-5.62s-15.58-.09-16.22,0-.72-.27-.91.18c0,.36-.18,14.22-.09,28.81,0,16.4.36,33.79.36,34,0,.36-.09.54.27.54s17.85-.36,20.29-.63,7.25-.54,11-4.44,6.43-8.52,6.43-13.5c-.09-4.8-.82-7.61-3-10.33s-1.9-2.36-2.17-2.63A.86.86,0,0,1,428.15,384.45Zm-21,6.79c.36-.09,2.9-.27,4.8-.36a9.91,9.91,0,0,1,6.34,1.9,7.13,7.13,0,0,1,1.54,8.61c-1.54,3.17-4.89,3.35-5.71,3.44s-6-.09-6.43-.09c-.27-.09-.63-.09-.63-.72s-.27-11.69-.27-12.23C406.77,391.51,406.77,391.33,407.13,391.24Zm.27-25.64a28.69,28.69,0,0,1,4.26-.18,10.84,10.84,0,0,1,4.17.64,6.16,6.16,0,0,1,4.26,3.71,6.85,6.85,0,0,1-.63,7c-1.36,1.81-3.71,2.36-4.8,2.63-1.27.18-5.89.09-6.52.09s-1.09-.36-1.09-.63-.18-3.71-.18-6.43v-6.25C406.86,366,406.86,365.78,407.4,365.6Z" transform="translate(-67.15 -350.55)"/><path class="cls-1" d="M515,416.79c0,.72-.27,11.23-.27,12.5,0,1.45-.45,1.36-1.27,1.54-1,.09-37.42,0-38,0a1.64,1.64,0,0,1-1.27-.36c-.36-.36-3-3-4.89-5.16s-7.61-7.16-7.88-7.52a1.47,1.47,0,0,1-.45-1.27c0-.45.18-21.2.27-32s.45-31,.45-31.44c0-.72.36-.82,1-.91s13.86-.36,14.31-.36.81-.18,1.36.45,12.5,12.59,13,13.14a2.06,2.06,0,0,1,.63,1.63c.09.81-.09,34.06,0,35.33s.45,1,1.18,1,5.89-.18,6.7-.18a1.65,1.65,0,0,1,1.45.45c.36.45,12.77,11.42,13.32,11.87S515,416.06,515,416.79ZM499.89,405.1l-23.46.09c-.72,0-.91-.18-.91-.63s-.18-15.13-.27-17.48V354c0-.27-.09-.36-.54-.36s-10.6,0-11.05.09-.36.18-.36.36c0,.36-.18,18.66-.27,21.92s-.27,40.22-.27,40.59-.09.54.45.54l36.33-.09c.27,0,.36-.09.36-.45s.18-11,.18-11.23S500.07,405.1,499.89,405.1Z" transform="translate(-67.15 -350.55)"/><path class="cls-1" d="M582.41,430.56l-12.41.18a2.46,2.46,0,0,1-1.09-.54c-.27-.27-5-4.08-6.61-5.71-1.72-1.45-6.16-5.34-6.34-5.53s-.27-.45-.36-.18c-.09.45-.54,3.17-1,5.44s-1.18,5.07-1.27,5.71-.18.72-.91.82-15.58,0-16.58-.09a2,2,0,0,1-1.63-.72c-.64-.45-11.6-11.23-12-11.6a1.37,1.37,0,0,1-.18-1.45c.18-.72,15.13-63.78,15.22-64.23s.36-.54,1.09-.63,16-.09,17.21,0,1.45.45,2.54,1.27,12,11.23,12.59,11.87a2.83,2.83,0,0,1,1,1.72c.27.91,2.63,10.78,4.53,19.75,2.08,8.88,6.43,28.08,6.52,28.81a10.7,10.7,0,0,1,.27,1.81c0,.91.09,12,.18,12.59S582.87,430.56,582.41,430.56Zm-13-14c0-.18-2.72-13.68-6-27.72-3.81-16.4-8.06-34.15-8.06-34.34-.09-.36-.09-.91-.45-.91l-15.4.09c-.18,0-.27,0-.36.54s-14.86,61.88-15,62.51c-.09.27,0,.36.18.36s3.53,0,5.53-.09,5.62.09,5.89,0,.27-.09.27-.27,1.36-5.35,1.81-7.16c.54-2,1.36-5.44,1.54-5.71s.27-.45.63-.54,3.26,0,6.61-.09,7.34.09,7.88.09.72.27.82.72,2.54,12.14,2.63,12.5,0,.45.36.45l10.78.09C569.55,417.15,569.46,417,569.37,416.61Zm-16.31-23.55c.18.64-.54.72-1.09.82s-8.79,0-9.33-.09c-.18,0-.82,0-.72-.72s1.63-7.43,2.54-11.14,2.26-10.33,2.54-11.51.82-.91.91-.27,1.72,7.07,3,12.86C552.07,388.52,553,392.51,553.06,393.05Z" transform="translate(-67.15 -350.55)"/><path class="cls-1" d="M647.55,383.81c0,2.27-.18,8.79-.18,9.33,0,.72-.27.36-.91.36s-6.25,0-7,.09c-.27,0-.27,0,0,.54.45.63,1.9,2.27,3.17,4.17a31.7,31.7,0,0,1,3.26,4,3.59,3.59,0,0,1,.91,1.9,39.36,39.36,0,0,1,.36,6.34c0,3-.18,9.06-1.54,13.5-1.09,4.17-4.08,6.25-7.52,7.34s-9.87.72-12.59.54-5.25-.54-10.51-3-11.78-8.42-16.76-14.22c-4.53-5.89-5.62-10.51-6.07-13.77S591.83,376,592.1,369s2.81-10,5.44-13,7.43-4.8,9-5.25c1.9-.36,6.43-.18,10.69.18,4.08.54,7.88,2.72,13.14,6.34,5.35,3.81,11.23,10.69,12.77,12.5a24.1,24.1,0,0,1,3.44,6.52A28,28,0,0,1,647.55,383.81Zm-14.95,7.52c0-.36.09-.45-.45-.45l-11.69-.09c-.45-.09-.54,0-.54.54s-.09,3.81-.27,6.61a8,8,0,0,1-3,5.89,7.49,7.49,0,0,1-7.79.27c-2.45-1.72-3.17-4.71-3.17-9.24.09-4.71.36-19.12.54-22.92a8.16,8.16,0,0,1,3.44-6.79,8.07,8.07,0,0,1,6.79,0,5.45,5.45,0,0,1,2.81,4c.72,2.45.36,7.88.45,8.52.09.18.09.54.45.54l12-.18c.36-.09.27-.09.27-.63s0-5.07-.18-8c-.18-2.63-.63-4.53-3.08-9s-8.06-6.61-11.42-7.61-6.25-.72-9.51-.54-6.52,2-9.15,4.53a19.62,19.62,0,0,0-5.25,8.61c-.72,3-.72,5.07-.82,12.41,0,7.52-.09,18.21.45,22.92.27,4.89,2.26,8.24,6,11.51,3.81,3.44,9.87,5.16,16.4,4.71s10.42-4.26,13.86-9.78C633.32,401.48,632.51,391.88,632.6,391.33Z" transform="translate(-67.15 -350.55)"/><path class="cls-1" d="M724.73,429.92c0,.54-.18.91-.91.91-.91.09-12.32.18-13,.09a2.37,2.37,0,0,1-1.54-.45c-.45-.36-3.17-2.54-6.79-5.53-3.81-3.17-7.07-5.44-7.43-5.8-.54-.36-.63-.36-.54,0v10.33a1.18,1.18,0,0,1-1.09,1.45c-.54.09-15.85.36-16.31.36s-.54-.18-1-.45c-.27-.36-13.77-12.23-14.13-12.68a2.39,2.39,0,0,1-.45-1.36c0-.36-.36-34.52-.36-38.59,0-5.62.18-17.85.27-21.65.09-.72.36-2.63.36-3,0,0,.27-1,.64-1.18a3.49,3.49,0,0,1,1.54-.36h12.77a.88.88,0,0,1,1,.36,21.62,21.62,0,0,1,2.45,2.9c1.09,1.45,2,2.9,2.36,3.35.18.45.27.45.63,0s5.34-5.34,5.8-5.89.54-.64,1.18-.72,20.29-.09,20.93-.18.91.09,1.45.63S723.55,362.7,723.91,363a1.16,1.16,0,0,1,.36,1v1.63a1.33,1.33,0,0,1-.54,1.18c-.45.64-6.34,6.52-8.88,9.24-2.36,2.45-9.6,10-10,10.24s-.27.36,0,.72,5.62,11.42,8.06,16.22c2.54,5,11.14,21.65,11.51,22.29a2.74,2.74,0,0,1,.36,1.27A18.33,18.33,0,0,1,724.73,429.92Zm-15.58-14c-.27-.54-5.89-12.41-8.61-17.12-2.36-4.71-12.68-25.28-12.86-25.82-.18-.36-.27-.45.18-.91s7.16-6.61,9.51-9.15c2.45-2.36,8.52-8.52,8.79-8.79s.63-.45-.18-.36H691.75a1.41,1.41,0,0,0-1.18.45,73.39,73.39,0,0,1-5.16,5.35c-2.45,2.17-8.7,8.24-9.24,8.52-.36.18-.54.36-.54-.36V367s0-2,.09-5.53c.18-3.71.18-7.07.18-7.43s0-.45-.45-.45c-.27,0-3.17-.09-5.89-.09-2.9.09-6.07.09-6.25.09s-.27.09-.27.36,0,17.94-.09,23.19.36,39.41.36,39.68.09.45.36.36H675c.27,0,.45.09.45-.36s-.09-31.53-.09-31.89,0-.54.18-.72,2.63-3,3-3.26.36-.27.64.18c.27.64,4.17,8.61,6.34,13.14,2.08,4.35,10.6,21.65,10.78,22.1s.18.36.54.36l12-.09C709.23,416.61,709.41,416.52,709.14,415.88Z" transform="translate(-67.15 -350.55)"/></svg>